<svg width="35" height="23" viewBox="0 0 35 23" fill="none" xmlns="http://www.w3.org/2000/svg">
<path d="M16.1665 1.66663H14.4998C10.3332 1.66663 8.6665 3.3333 8.6665 7.49997V12.5C8.6665 16.6666 10.3332 18.3333 14.4998 18.3333H19.4998C23.6665 18.3333 25.3332 16.6666 25.3332 12.5V10.8333M19.4248 3.4583C19.9832 5.44997 21.5415 7.0083 23.5415 7.57497M20.3665 2.51663L13.7998 9.0833C13.5498 9.3333 13.2998 9.82497 13.2498 10.1833L12.8915 12.6916C12.7582 13.6 13.3998 14.2333 14.3082 14.1083L16.8165 13.75C17.1665 13.7 17.6582 13.45 17.9165 13.2L24.4832 6.6333C25.6165 5.49997 26.1498 4.1833 24.4832 2.51663C22.8165 0.849966 21.4998 1.3833 20.3665 2.51663Z" stroke="black" stroke-miterlimit="10" stroke-linecap="round" stroke-linejoin="round"/>
</svg>
